<?xml version="1.0" encoding="UTF-8" standalone="no"?>
<svg
   xmlns:dc="http://purl.org/dc/elements/1.1/"
   xmlns:cc="http://creativecommons.org/ns#"
   xmlns:rdf="http://www.w3.org/1999/02/22-rdf-syntax-ns#"
   xmlns:svg="http://www.w3.org/2000/svg"
   xmlns="http://www.w3.org/2000/svg"
   viewBox="0 0 400 163.45332"
   height="163.45332"
   width="400"
   xml:space="preserve"
   id="svg2"
   version="1.1"><metadata
     id="metadata8"><rdf:RDF><cc:Work
         rdf:about=""><dc:format>image/svg+xml</dc:format><dc:type
           rdf:resource="http://purl.org/dc/dcmitype/StillImage" /></cc:Work></rdf:RDF></metadata><defs
     id="defs6" /><g
     transform="matrix(1.3333333,0,0,-1.3333333,0,163.45333)"
     id="g10"><g
       transform="scale(0.1)"
       id="g12"><path
         id="path14"
         style="fill:#1964ff;fill-opacity:1;fill-rule:nonzero;stroke:none"
         d="m 1425.43,106.141 c -76.37,0 -98.38,-21.1527 -98.38,-44.4418 0,-20.2773 13.81,-35.3789 35.39,-35.3789 37.53,0 62.99,37.961 62.99,73.3399 z m 1.29,-102.26209 c 0,16.39059 0,32.79299 2.16,45.31249 h -0.86 C 1417.66,22 1390.05,0 1353.38,0 c -34.09,0 -58.68,22 -58.68,56.9414 0,44.0196 46.16,72.9296 130.73,72.9296 v 12.938 c 0,35.382 -12.08,53.5 -48.33,53.5 -20.27,0 -45.3,-6.477 -65.14,-15.098 l -6.05,25.449 c 22.44,9.059 48.76,15.539 75.08,15.539 57.38,0 76.79,-29.34 76.79,-75.09 V 68.1602 c 0,-21.1289 0,-45.2891 0.86,-64.28129 h -31.92" /><path
         id="path16"
         style="fill:#1964ff;fill-opacity:1;fill-rule:nonzero;stroke:none"
         d="M 1638.83,3.87891 1554.26,116.488 V 3.87891 h -32.35 V 318.832 h 32.35 v -196.73 l 80.69,96.207 h 37.53 L 1588.35,121.66 1680.68,3.87891 h -41.85" /><path
         id="path18"
         style="fill:#1964ff;fill-opacity:1;fill-rule:nonzero;stroke:none"
         d="m 1833.55,106.141 c -76.37,0 -98.38,-21.1527 -98.38,-44.4418 0,-20.2773 13.81,-35.3789 35.38,-35.3789 37.54,0 63,37.961 63,73.3399 z m 1.29,-102.26209 c 0,16.39059 0,32.79299 2.16,45.31249 h -0.87 C 1825.78,22 1798.16,0 1761.49,0 c -34.08,0 -58.67,22 -58.67,56.9414 0,44.0196 46.16,72.9296 130.73,72.9296 v 12.938 c 0,35.382 -12.09,53.5 -48.33,53.5 -20.28,0 -45.3,-6.477 -65.14,-15.098 l -6.05,25.449 c 22.44,9.059 48.75,15.539 75.08,15.539 57.37,0 76.79,-29.34 76.79,-75.09 V 68.1602 c 0,-21.1289 0,-45.2891 0.86,-64.28129 h -31.92" /><path
         id="path20"
         style="fill:#1964ff;fill-opacity:1;fill-rule:nonzero;stroke:none"
         d="m 2064.33,190.262 c -14.23,3.449 -28.47,5.179 -41.85,5.179 -44.44,0 -73.34,-26.742 -73.34,-91.461 0,-48.3316 15.96,-77.23 51.34,-77.23 43.14,0 63.85,50.0508 63.85,88.012 z m 0.44,-186.38309 c 0,12.94139 0.86,33.66019 3.88,46.60159 l -0.86,0.4297 C 2055.71,20.2695 2028.09,0 1994.01,0 c -53.07,0 -78.96,38.832 -78.96,101.379 0,76.383 43.15,119.512 109.59,119.512 12.94,0 25.02,-0.852 39.69,-2.141 v 100.082 h 32.36 V 3.87891 h -31.92" /><path
         id="path22"
         style="fill:#1964ff;fill-opacity:1;fill-rule:nonzero;stroke:none"
         d="m 2291.37,135.469 c 0.86,39.261 -19.42,61.691 -52.2,61.691 -30.2,0 -53.07,-22 -57.81,-61.691 z M 2318.12,12.9414 C 2295.25,5.17969 2271.09,0 2246.07,0 c -64.71,0 -99.23,34.9414 -99.23,110.02 0,63.851 34.94,112.179 94.49,112.179 59.1,0 83.26,-40.14 83.26,-87.59 0,-12.078 -0.86,-22.859 -0.86,-22.859 h -143.24 c -0.86,-58.6797 22.43,-85 69.9,-85 20.7,0 41.41,3.8906 62.98,11.6484 l 4.75,-25.457" /><path
         id="path24"
         style="fill:#1964ff;fill-opacity:1;fill-rule:nonzero;stroke:none"
         d="M 2644.94,3.87891 V 141.941 c 0,32.368 -7.76,53.5 -38.82,53.5 -32.8,0 -64.29,-34.082 -64.29,-89.742 V 3.87891 H 2509.9 V 142.371 c 0,29.34 -6.03,53.07 -38.83,53.07 -35.37,0 -64.28,-37.109 -64.28,-89.742 V 3.87891 h -32.36 V 218.309 h 31.93 c 0,-14.227 -0.86,-34.508 -3.46,-47.887 l 0.87,-0.434 c 12.08,31.492 40.12,52.211 75.5,52.211 48.75,0 59.11,-34.949 59.97,-51.34 7.77,20.27 31.07,51.34 74.64,51.34 40.13,0 63.42,-21.59 63.42,-69.898 V 3.87891 h -32.36" /><path
         id="path26"
         style="fill:#1964ff;fill-opacity:1;fill-rule:nonzero;stroke:none"
         d="M 2741.43,3.87891 V 218.309 h 32.36 V 3.87891 Z m 16.4,261.45309 c -12.51,0 -22.44,9.492 -22.44,22.004 0,12.086 9.93,22 22.44,22 12.08,0 22.43,-9.492 22.43,-22 0,-12.074 -10.35,-22.004 -22.43,-22.004" /><path
         id="path28"
         style="fill:#1964ff;fill-opacity:1;fill-rule:nonzero;stroke:none"
         d="m 2966.78,135.469 c 0.86,39.261 -19.42,61.691 -52.2,61.691 -30.2,0 -53.07,-22 -57.82,-61.691 z M 2993.53,12.9414 C 2970.66,5.17969 2946.5,0 2921.48,0 c -64.72,0 -99.23,34.9414 -99.23,110.02 0,63.851 34.94,112.179 94.49,112.179 59.1,0 83.26,-40.14 83.26,-87.59 0,-12.078 -0.86,-22.859 -0.86,-22.859 H 2855.9 c -0.86,-58.6797 22.43,-85 69.89,-85 20.71,0 41.42,3.8906 62.99,11.6484 l 4.75,-25.457" /><path
         id="path30"
         style="fill:#07262d;fill-opacity:1;fill-rule:nonzero;stroke:none"
         d="m 356.738,641.563 c -23.289,-27.524 -56.101,-40.227 -98.445,-40.227 -30.699,0 -55.047,3.176 -75.16,9.527 v 147.141 c 0,41.285 10.586,83.629 29.64,114.328 14.821,24.348 42.344,53.984 86.805,53.984 31.758,0 55.043,-12.703 70.922,-38.105 15.879,-24.348 23.289,-61.398 23.289,-110.094 1.059,-60.34 -11.644,-105.855 -37.051,-136.554 z M 457.305,953.84 c -29.641,38.109 -74.102,58.22 -130.203,58.22 -33.875,0 -65.633,-9.52 -92.098,-26.462 -26.465,-16.938 -46.578,-41.285 -58.223,-69.868 v 0 c 4.235,23.29 7.41,60.34 7.41,89.98 v 219.13 0 c -14.82,1.05 -29.64,1.05 -44.461,1.05 -43.398,0 -93.1519,-3.17 -139.73,-7.41 v 0 -63.51 0 c 25.4063,-2.12 56.1055,-5.29 80.4531,-9.53 v -605.502 0 c 55.0429,-13.762 105.8559,-20.114 169.3709,-20.114 77.278,0 141.848,25.406 185.25,73.043 43.403,46.578 66.692,114.324 66.692,195.836 1.058,70.926 -13.762,127.027 -44.461,165.137" /><path
         id="path32"
         style="fill:#07262d;fill-opacity:1;fill-rule:nonzero;stroke:none"
         d="m 1111.5,612.98 v 0 0 c -20.11,-4.234 -40.22,-6.351 -58.22,-6.351 -25.4,0 -39.17,5.293 -48.69,17.996 -9.531,12.703 -12.707,33.875 -12.707,70.926 v 226.535 h 123.857 v 80.454 H 990.824 v 178.89 l -102.679,-27.52 v 0 -150.32 h -91.04 v -80.449 h 91.04 V 664.852 c 0,-56.106 8.468,-91.039 27.523,-112.211 20.113,-23.289 51.867,-32.817 103.742,-32.817 30.7,0 69.86,4.235 99.5,11.645 v 0 l -7.41,81.511" /><path
         id="path34"
         style="fill:#07262d;fill-opacity:1;fill-rule:nonzero;stroke:none"
         d="M 1529.64,527.234 1349.68,771.766 V 602.395 c 24.35,-2.118 47.64,-5.293 65.63,-11.645 v -63.516 h -246.64 v 63.516 c 23.28,5.293 51.87,10.586 78.33,12.703 v 541.987 c -23.29,4.24 -53.99,7.41 -81.51,9.53 v 63.51 c 52.93,5.3 121.74,9.53 183.13,6.36 V 786.586 l 124.92,141.848 c -21.18,2.117 -39.17,5.293 -51.87,9.527 v 63.519 h 239.23 v -63.519 c -19.05,-5.289 -43.4,-8.469 -65.63,-10.582 l -132.32,-142.91 140.79,-179.957 c 22.23,-3.176 47.64,-6.352 73.04,-12.703 v -63.516 h -147.14 v -1.059" /><path
         id="path36"
         style="fill:#07262d;fill-opacity:1;fill-rule:nonzero;stroke:none"
         d="m 1908.61,925.258 c -63.51,0 -121.74,-47.633 -121.74,-160.903 0,-102.679 41.29,-159.843 121.74,-159.843 66.69,0 121.74,51.871 121.74,159.843 -1.06,103.743 -42.35,160.903 -121.74,160.903 z m -10.59,-407.551 c -131.26,0 -217,73.043 -217,239.238 0,145.028 92.09,255.115 236.06,255.115 127.03,0 217.01,-69.865 217.01,-238.177 0,-146.082 -93.16,-256.176 -236.07,-256.176" /><path
         id="path38"
         style="fill:#07262d;fill-opacity:1;fill-rule:nonzero;stroke:none"
         d="m 2820.04,527.234 v 302.754 c 0,58.223 -13.76,96.328 -67.75,96.328 -61.39,0 -121.73,-67.746 -121.73,-172.546 V 602.395 c 24.35,-2.118 51.87,-5.293 73.04,-11.645 v -63.516 h -174.67 v 302.754 c 0,53.989 -10.58,96.328 -67.74,96.328 -64.58,0 -121.74,-73.039 -121.74,-172.546 V 602.395 c 24.35,-2.118 51.87,-5.293 73.04,-11.645 V 527.234 H 2154.2 v 63.516 c 24.35,5.293 53.99,10.586 82.57,12.703 v 319.688 c -23.29,4.238 -55.05,7.41 -82.57,9.531 v 63.512 c 52.93,5.296 122.79,9.526 179.96,6.356 0,-24.352 -2.12,-64.579 -6.35,-93.157 l 1.05,-1.063 c 27.53,63.516 87.87,103.74 160.91,103.74 92.09,0 122.79,-60.337 131.26,-102.677 21.17,44.457 73.04,102.677 159.85,102.677 91.03,0 140.79,-49.751 140.79,-156.665 V 603.453 c 27.52,-2.117 55.04,-6.351 78.33,-12.703 v -63.516 h -179.96" /><path
         id="path40"
         style="fill:#07262d;fill-opacity:1;fill-rule:nonzero;stroke:none"
         d="m 799.223,590.75 c -24.344,6.352 -52.926,10.586 -79.391,12.703 v 399.087 0 c -13.762,1.05 -28.582,1.05 -44.461,1.05 -44.461,0 -94.215,-3.17 -139.73,-7.406 v 0 -63.512 0 c 26.461,-2.121 59.277,-5.293 82.566,-9.531 V 603.453 c -26.465,-2.117 -56.105,-6.351 -82.566,-12.703 v 0 -63.516 h 264.64 l -1.058,63.516 v 0" /><path
         id="path42"
         style="fill:#1964ff;fill-opacity:1;fill-rule:nonzero;stroke:none"
         d="m 726.184,1105.22 v 103.74 H 618.207 v -113.27 l 107.977,9.53 v 0" /></g></g></svg>